<?xml version="1.0" standalone="no"?>
<!DOCTYPE svg PUBLIC "-//W3C//DTD SVG 20010904//EN"
 "http://www.w3.org/TR/2001/REC-SVG-20010904/DTD/svg10.dtd">
<svg version="1.0" xmlns="http://www.w3.org/2000/svg"
 width="128.000000pt" height="128.000000pt" viewBox="0 0 128.000000 128.000000"
 preserveAspectRatio="xMidYMid meet">
<metadata>
Created by potrace 1.11, written by Peter Selinger 2001-2013
</metadata>
<g transform="translate(0.000000,128.000000) scale(0.100000,-0.100000)"
fill="#000000" stroke="none">
<path d="M837 1134 c-3 -4 1 -17 10 -30 9 -14 13 -27 9 -31 -3 -3 -6 -1 -6 6
0 7 -5 9 -12 5 -6 -4 -9 -3 -5 2 3 5 -1 18 -9 29 -10 13 -14 15 -14 4 0 -12
-2 -12 -10 1 -8 13 -10 12 -10 -4 0 -12 5 -16 15 -12 8 3 15 1 15 -4 0 -6 -9
-10 -19 -10 -11 0 -21 -3 -24 -7 -2 -5 -3 -3 -2 2 2 6 -7 18 -20 27 -17 13
-22 13 -22 3 0 -8 4 -12 9 -9 4 3 8 0 8 -5 0 -6 0 -14 0 -18 0 -5 -5 -8 -10
-8 -6 0 -15 -7 -20 -15 -6 -9 -10 -10 -10 -3 0 6 5 15 11 19 8 5 6 10 -5 16
-10 6 -20 7 -23 4 -4 -3 -1 -6 6 -6 7 0 9 -5 6 -10 -4 -6 -12 -7 -18 -3 -7 4
-6 -1 2 -10 12 -15 12 -17 -4 -11 -13 5 -16 4 -11 -4 5 -8 2 -10 -9 -6 -12 5
-13 10 -6 17 6 6 11 16 11 22 0 5 -5 2 -11 -8 -6 -9 -14 -15 -19 -12 -5 3 -12
0 -16 -6 -4 -7 -3 -9 3 -6 6 4 16 0 23 -8 11 -13 10 -14 -5 -9 -14 6 -16 4
-10 -7 5 -9 1 -8 -11 3 -14 12 -23 14 -34 7 -13 -9 -12 -10 2 -6 23 8 30 -3
13 -19 -16 -16 -29 -19 -20 -4 3 6 1 10 -4 10 -6 0 -11 -4 -11 -10 0 -5 -6 -9
-12 -7 -9 1 -12 -8 -9 -27 2 -22 -1 -28 -12 -23 -19 7 -35 -12 -31 -37 3 -21
-15 -66 -27 -66 -4 0 -11 5 -15 12 -5 7 -3 8 6 3 9 -6 11 -4 5 5 -5 8 -4 11 2
7 6 -4 13 -1 16 6 3 7 -3 13 -13 13 -10 0 -17 -3 -14 -7 2 -4 -11 -20 -28 -35
-18 -15 -26 -25 -18 -22 9 3 24 0 34 -7 16 -12 14 -13 -17 -11 -27 2 -34 0
-30 -11 4 -10 9 -11 19 -2 9 7 14 8 14 1 0 -5 -7 -13 -16 -16 -8 -3 -13 -10
-9 -15 3 -5 0 -13 -6 -16 -17 -11 -23 3 -9 20 7 8 9 15 4 15 -5 0 -17 -14 -26
-31 -10 -16 -13 -27 -8 -24 6 3 11 0 11 -7 1 -7 3 -23 4 -36 2 -17 -2 -22 -13
-17 -12 4 -13 3 -2 -10 7 -8 9 -15 5 -15 -4 0 -1 -8 6 -17 10 -11 10 -14 2 -9
-20 11 -15 -5 5 -20 9 -7 18 -27 19 -46 4 -49 6 -58 11 -54 10 10 30 -19 20
-31 -6 -8 -4 -11 8 -9 20 3 32 26 14 26 -6 0 -8 5 -5 10 4 6 1 9 -5 8 -6 -2
-19 7 -27 20 -10 14 -11 22 -4 22 6 0 11 -6 11 -14 0 -9 7 -13 20 -11 11 2 19
1 19 -3 -3 -18 2 -33 9 -29 4 3 8 -6 9 -20 0 -16 -2 -21 -7 -14 -5 9 -9 8 -14
-5 -3 -9 -4 -19 -1 -22 3 -3 5 0 5 7 0 7 5 9 11 6 6 -4 8 -14 5 -22 -3 -8 -2
-12 3 -9 4 3 19 -6 31 -19 13 -14 29 -25 37 -25 16 0 17 -12 2 -27 -9 -9 -7
-11 6 -9 35 5 22 45 -17 50 -3 1 -9 4 -13 8 -6 5 19 4 35 -2 3 -1 8 -2 13 -1
4 0 7 -4 7 -10 0 -5 6 -7 13 -3 9 6 9 4 -1 -8 -8 -10 -9 -19 -3 -22 5 -3 11
-1 13 6 3 8 7 6 11 -5 3 -9 1 -19 -5 -23 -7 -4 -8 -3 -4 4 5 8 2 10 -9 6 -19
-8 -19 -7 25 -28 23 -11 29 -12 18 -3 -10 8 -15 17 -11 20 3 4 12 -2 20 -13 8
-11 34 -34 59 -51 33 -23 48 -28 58 -20 9 8 13 7 13 -2 0 -8 -12 -13 -28 -13
-16 0 -25 4 -22 9 3 6 1 7 -5 3 -5 -3 -12 0 -15 6 -3 7 -4 3 -4 -9 1 -12 5
-19 9 -17 4 3 8 -1 8 -8 0 -8 3 -9 8 -3 11 15 72 13 72 -3 0 -8 6 -12 13 -9 6
2 20 0 29 -5 14 -6 16 -5 12 7 -3 8 -11 12 -18 9 -6 -3 -2 2 8 10 11 9 24 16
29 16 4 0 5 5 1 12 -4 7 -3 8 5 4 6 -4 14 0 17 8 3 9 10 14 14 11 4 -3 10 5
14 18 3 12 18 30 33 39 15 10 22 18 14 18 -11 0 -10 4 5 16 18 15 18 15 -3 5
-30 -15 -32 -14 -28 9 3 18 -6 25 -28 21 -5 -1 -6 3 -2 9 4 6 15 8 25 5 10 -3
21 -1 25 4 4 7 -1 8 -11 4 -12 -4 -15 -2 -12 8 3 8 11 13 17 11 7 -1 10 2 6 8
-5 8 -11 8 -20 0 -9 -8 -17 -4 -30 16 -16 25 -16 27 -1 21 11 -4 15 -3 11 4
-4 6 -13 8 -21 5 -7 -3 -16 -1 -20 5 -3 6 -13 8 -21 5 -11 -4 -13 -1 -8 14 6
18 3 20 -21 14 -20 -5 -25 -4 -19 6 5 8 3 11 -6 8 -8 -3 -13 -11 -11 -17 1 -7
-2 -10 -8 -6 -8 5 -7 11 1 22 11 12 10 14 -2 13 -26 -4 -40 0 -34 10 3 6 2 10
-4 10 -5 0 -12 -6 -14 -12 -4 -10 -6 -10 -6 -1 -2 21 22 26 36 8 11 -17 13
-17 13 -2 0 17 -41 34 -58 23 -6 -3 -8 3 -5 14 3 12 -1 22 -11 26 -9 3 -16 10
-16 16 0 5 6 6 13 3 6 -4 4 0 -5 8 -25 20 -23 30 3 17 11 -7 23 -9 27 -6 3 3
0 6 -7 6 -7 0 -10 4 -6 9 3 5 1 13 -5 16 -8 5 -7 11 1 21 6 7 15 11 20 8 5 -3
6 1 4 8 -4 9 2 14 15 15 13 1 18 -2 14 -10 -4 -7 -3 -8 2 -4 5 5 10 13 10 18
1 5 2 13 3 18 0 6 10 8 21 6 11 -2 20 0 20 4 0 5 -14 8 -30 7 -19 0 -29 -5
-26 -13 3 -6 -1 -14 -9 -17 -13 -5 -30 22 -20 32 3 3 5 -1 5 -9 0 -11 2 -11
10 1 5 8 15 15 22 15 7 1 12 6 11 12 -3 16 36 10 47 -7 8 -12 10 -12 10 -1 0
10 3 11 14 2 11 -9 16 -9 22 0 4 8 3 9 -4 5 -7 -4 -12 -3 -12 2 0 17 13 22 28
9 10 -8 13 -8 9 -1 -4 7 -1 14 6 17 7 2 13 17 15 32 1 16 8 35 15 43 6 8 11
18 10 21 -1 3 4 5 11 4 6 -2 12 6 12 16 0 11 -3 18 -6 16 -3 -2 -12 0 -20 6
-12 7 -12 9 3 9 11 0 18 7 16 18 -3 32 1 43 13 36 7 -5 8 -3 4 5 -5 7 -10 10
-14 7 -3 -3 -10 1 -16 10 -10 13 -12 13 -12 -5 0 -11 3 -18 6 -16 10 6 5 -33
-5 -42 -4 -5 -6 -3 -2 2 3 6 2 17 -4 25 -6 10 -9 11 -9 3 0 -7 -5 -13 -12 -13
-6 0 -4 8 6 19 11 12 13 21 7 25 -6 4 -8 14 -5 24 4 12 3 13 -3 4 -16 -21 -49
-23 -49 -2 0 10 4 16 8 14 4 -3 8 0 8 6 0 7 -6 10 -14 7 -16 -6 -40 16 -29 26
3 4 4 7 1 7 -2 0 -7 -3 -11 -6z m-207 -128 c0 -3 -4 -8 -10 -11 -5 -3 -10 -1
-10 4 0 6 5 11 10 11 6 0 10 -2 10 -4z m-44 -19 c3 -3 -2 -14 -12 -24 -15 -15
-17 -15 -12 -2 4 9 2 21 -4 27 -7 7 -6 10 5 8 9 -1 19 -5 23 -9z m-53 -62
c-12 -32 -23 -14 -14 23 1 2 5 1 11 -3 5 -3 7 -12 3 -20z m383 -59 c0 -14 -3
-23 -7 -20 -4 2 -10 -2 -12 -8 -3 -8 -6 -6 -6 5 -1 9 4 17 9 17 6 0 9 3 9 8
-2 10 0 22 4 22 2 0 3 -11 3 -24z m-453 -20 c4 -10 1 -13 -8 -9 -8 3 -12 9 -9
14 7 12 11 11 17 -5z m411 -1 c3 -9 -3 -19 -16 -26 -12 -7 -18 -7 -14 -1 3 6
0 13 -6 16 -7 3 -3 3 9 0 18 -4 22 -2 17 10 -3 9 -4 16 -1 16 3 0 7 -7 11 -15z
m-144 -85 c0 -5 -5 -10 -11 -10 -5 0 -7 5 -4 10 3 6 8 10 11 10 2 0 4 -4 4
-10z m-325 -28 c-3 -3 -11 0 -18 7 -9 10 -8 11 6 5 10 -3 15 -9 12 -12z m310
-8 c-9 -9 -19 -13 -23 -10 -3 4 0 11 8 16 24 15 33 11 15 -6z m0 -34 c3 -6 -1
-7 -9 -4 -18 7 -21 14 -7 14 6 0 13 -4 16 -10z m-25 -51 c0 -5 -4 -9 -8 -9 -5
0 -9 7 -9 15 0 8 4 12 9 9 4 -3 8 -9 8 -15z m24 -40 c-8 -14 -21 -11 -21 5 0
8 6 12 14 9 7 -3 10 -9 7 -14z m191 -129 c16 -17 16 -20 3 -15 -9 4 -19 13
-22 21 -7 19 -2 18 19 -6z m-399 -15 c-4 -11 3 -19 21 -26 22 -8 24 -12 13
-19 -11 -7 -20 -3 -31 12 -15 19 -16 48 -2 48 3 0 2 -7 -1 -15z m429 -33 c-3
-3 -11 0 -18 7 -9 10 -8 11 6 5 10 -3 15 -9 12 -12z m25 -92 c-8 -5 -19 -10
-25 -10 -5 0 -3 5 5 10 8 5 20 10 25 10 6 0 3 -5 -5 -10z m-119 -109 c-12 -12
-21 -18 -21 -14 0 10 33 44 37 39 3 -2 -5 -14 -16 -25z"/>
<path d="M896 1095 c-9 -26 -7 -32 5 -12 6 10 9 21 6 23 -2 3 -7 -2 -11 -11z"/>
<path d="M988 963 c5 -21 7 -23 10 -9 2 10 0 22 -6 28 -6 6 -7 0 -4 -19z"/>
<path d="M952 918 c0 -7 -3 -23 -6 -35 -3 -17 -1 -20 11 -16 12 5 12 7 1 14
-8 6 -9 9 -1 9 6 0 10 7 9 15 -3 19 -12 28 -14 13z"/>
<path d="M926 822 c-3 -5 1 -9 9 -9 8 0 12 4 9 9 -3 4 -7 8 -9 8 -2 0 -6 -4
-9 -8z"/>
<path d="M805 800 c-3 -6 1 -7 9 -4 18 7 21 14 7 14 -6 0 -13 -4 -16 -10z"/>
<path d="M359 712 c9 -7 10 -11 2 -15 -7 -4 -8 -5 0 -3 15 2 13 20 -3 24 -10
3 -10 2 1 -6z"/>
<path d="M735 700 c3 -5 8 -10 11 -10 2 0 4 5 4 10 0 6 -5 10 -11 10 -5 0 -7
-4 -4 -10z"/>
<path d="M357 653 c-10 -9 -9 -23 1 -23 5 0 9 7 9 15 0 17 -1 18 -10 8z"/>
<path d="M748 613 c7 -3 16 -2 19 1 4 3 -2 6 -13 5 -11 0 -14 -3 -6 -6z"/>
<path d="M351 593 c7 -12 15 -20 18 -17 3 2 -3 12 -13 22 -17 16 -18 16 -5 -5z"/>
<path d="M383 585 c0 -8 4 -12 9 -9 5 3 6 10 3 15 -9 13 -12 11 -12 -6z"/>
<path d="M820 561 c0 -5 7 -12 16 -15 14 -5 15 -4 4 9 -14 17 -20 19 -20 6z"/>
<path d="M892 521 c-11 -7 -11 -9 0 -14 9 -3 15 1 15 9 0 8 -1 14 -1 14 -1 0
-7 -4 -14 -9z"/>
<path d="M945 460 c-3 -6 1 -7 9 -4 18 7 21 14 7 14 -6 0 -13 -4 -16 -10z"/>
<path d="M970 385 c-7 -9 -8 -15 -2 -15 5 0 12 7 16 15 3 8 4 15 2 15 -2 0 -9
-7 -16 -15z"/>
<path d="M590 305 c0 -5 5 -17 10 -25 5 -8 10 -10 10 -5 0 6 -5 17 -10 25 -5
8 -10 11 -10 5z"/>
<path d="M958 299 c-20 -11 -24 -29 -7 -29 5 0 7 5 4 10 -6 9 8 14 28 11 4 0
7 4 7 9 0 13 -10 12 -32 -1z"/>
<path d="M644 274 c-18 -14 -18 -15 2 -5 26 12 51 -8 33 -26 -6 -6 -5 -10 5
-10 8 0 13 4 10 8 -2 4 0 9 5 11 5 1 -1 11 -14 20 -20 15 -24 15 -41 2z"/>
<path d="M900 235 c-19 -14 -29 -25 -23 -25 6 0 13 -6 16 -12 2 -7 3 -5 1 5
-2 19 28 41 41 29 5 -4 4 -1 0 7 -6 11 -4 13 9 8 10 -4 15 -3 11 3 -9 15 -18
12 -55 -15z"/>
</g>
</svg>
